<?xml version="1.0" encoding="UTF-8" standalone="no"?>
<!DOCTYPE svg PUBLIC "-//W3C//DTD SVG 1.1//EN" "http://www.w3.org/Graphics/SVG/1.1/DTD/svg11.dtd">
<svg width="100%" height="100%" viewBox="0 0 642 645" version="1.1" xmlns="http://www.w3.org/2000/svg" xmlns:xlink="http://www.w3.org/1999/xlink" xml:space="preserve" xmlns:serif="http://www.serif.com/" style="fill-rule:evenodd;clip-rule:evenodd;stroke-linejoin:round;stroke-miterlimit:2;">
    <g transform="matrix(1,0,0,1,-358,-322)">
        <g transform="matrix(1,0,0,-1,-9,966.1)">
            <path d="M748.8,413.5L720.7,458.6C715.4,456.3 709.5,455 703.3,455C699,455 694.8,455.7 690.9,456.8L663.3,407.2C655.9,410.2 648.8,413.9 642.2,418.6L670.6,469.6C663.6,477.4 659.3,487.7 659.3,498.9C659.3,523.2 679.1,542.9 703.3,542.9C727.6,542.9 747.3,523.2 747.3,498.9C747.3,489.6 744.4,480.9 739.4,473.8L768,428C762.2,422.4 755.8,417.5 748.8,413.5ZM703.4,527.2C687.8,527.2 675.1,514.6 675.1,499C675.1,483.4 687.8,470.7 703.4,470.7C719,470.7 731.6,483.4 731.6,499C731.6,514.6 718.9,527.2 703.4,527.2Z" style="fill-rule:nonzero;"/>
        </g>
        <g transform="matrix(-1,0,0,-1,1400.3,983)">
            <path d="M802.2,372.9L876.5,253.4C880.4,254.5 884.5,255.1 888.7,255.1C913,255.1 932.7,235.4 932.7,211.1C932.7,186.8 913,167.1 888.7,167.1C864.4,167.1 844.7,186.8 844.7,211.1C844.7,222.5 849.1,232.8 856.2,240.7L782.6,359.2C789.4,363.2 796,367.8 802.2,372.9ZM888.7,182.9C904.3,182.9 917,195.6 917,211.2C917,226.8 904.3,239.5 888.7,239.5C873.1,239.5 860.4,226.8 860.4,211.2C860.4,195.5 873.1,182.9 888.7,182.9Z" style="fill-rule:nonzero;"/>
        </g>
        <g transform="matrix(1,0,0,1,1,-14)">
            <path d="M985.1,799.8L809.2,597.9C858.2,542.2 859.8,457.3 809.7,399.9C755.2,337.3 660,330.8 597.5,385.3C535,439.7 528.4,535 582.9,597.5C633,655 717.2,665 779.1,624.1L955,826C962.2,834.3 974.9,835.2 983.2,827.9C991.5,820.7 992.3,808.1 985.1,799.8ZM768.9,582C723,622 653.1,617.2 613,571.3C573,525.3 577.8,455.4 623.7,415.4C669.6,375.4 739.6,380.2 779.6,426.1C819.7,472.1 814.9,542 768.9,582Z" style="fill-rule:nonzero;"/>
        </g>
    </g>
</svg>
